<?xml version="1.0" encoding="utf-8"?>
<!-- Generator: Adobe Illustrator 27.0.0, SVG Export Plug-In . SVG Version: 6.00 Build 0)  -->
<svg version="1.1" id="Layer_1" xmlns="http://www.w3.org/2000/svg" xmlns:xlink="http://www.w3.org/1999/xlink" x="0px" y="0px"
	 viewBox="0 0 448 448" style="enable-background:new 0 0 448 448;" xml:space="preserve">
<style type="text/css">
	.st0{fill:#2B4FFD;}
	.st1{fill:#FFFFFF;}
</style>
<path class="st0" d="M311.1,201.9c-18.3,0-30.5,11.4-31.7,29.7h62.2C339.9,213.1,330.3,201.9,311.1,201.9z M156.2,233.5h-46v52.9
	h45.1c17.2,0,31.2-6.1,31.2-25.4C186.5,241.3,174.8,233.6,156.2,233.5z M149.9,156.8h-39.6v44.8H153c15.1,0,25.8-6.6,25.8-22.9
	C178.8,161,165.1,156.8,149.9,156.8z M149.9,156.8h-39.6v44.8H153c15.1,0,25.8-6.6,25.8-22.9C178.8,161,165.1,156.8,149.9,156.8z
	 M156.2,233.5h-46v52.9h45.1c17.2,0,31.2-6.1,31.2-25.4C186.5,241.3,174.8,233.6,156.2,233.5z M311.1,201.9
	c-18.3,0-30.5,11.4-31.7,29.7h62.2C339.9,213.1,330.3,201.9,311.1,201.9z M311.1,201.9c-18.3,0-30.5,11.4-31.7,29.7h62.2
	C339.9,213.1,330.3,201.9,311.1,201.9z M156.2,233.5h-46v52.9h45.1c17.2,0,31.2-6.1,31.2-25.4C186.5,241.3,174.8,233.6,156.2,233.5z
	 M178.8,178.7c0-17.7-13.7-21.9-28.9-21.9h-39.6v44.8H153C168.1,201.6,178.8,195,178.8,178.7z M400,0H48C21.5,0,0,21.5,0,48v352
	c0,26.5,21.5,48,48,48h352c26.5,0,48-21.5,48-48V48C448,21.5,426.5,0,400,0z M271.7,134.1h77.8V153h-77.8V134.1z M161.1,319.2H68
	v-192h90.5c32.9,0,61.4,9.3,61.4,47.5c0,19.3-9,28.8-26.2,37c23.6,6.7,35,27.5,35,51.6C228.7,302.3,196,319,161.1,319.2z
	 M379.7,255.7H279.5c0,22.2,11.7,35.3,34.1,35.3c11.6,0,26.5-6.2,30.2-18.1h33.7c-10.4,31.9-31.9,46.8-65.1,46.8
	c-43.8,0-71.1-29.7-71.1-73c0-41.8,28.7-73.6,71.1-73.6c43.5,0,67.6,34.3,67.6,75.4C380,250.9,379.8,253.4,379.7,255.7z
	 M311.1,201.9c-18.3,0-30.5,11.4-31.7,29.7h62.2C339.9,213.1,330.3,201.9,311.1,201.9z M156.2,233.5h-46v52.9h45.1
	c17.2,0,31.2-6.1,31.2-25.4C186.5,241.3,174.8,233.6,156.2,233.5z M178.8,178.7c0-17.7-13.7-21.9-28.9-21.9h-39.6v44.8H153
	C168.1,201.6,178.8,195,178.8,178.7z M149.9,156.8h-39.6v44.8H153c15.1,0,25.8-6.6,25.8-22.9C178.8,161,165.1,156.8,149.9,156.8z
	 M156.2,233.5h-46v52.9h45.1c17.2,0,31.2-6.1,31.2-25.4C186.5,241.3,174.8,233.6,156.2,233.5z M311.1,201.9
	c-18.3,0-30.5,11.4-31.7,29.7h62.2C339.9,213.1,330.3,201.9,311.1,201.9z M311.1,201.9c-18.3,0-30.5,11.4-31.7,29.7h62.2
	C339.9,213.1,330.3,201.9,311.1,201.9z M156.2,233.5h-46v52.9h45.1c17.2,0,31.2-6.1,31.2-25.4C186.5,241.3,174.8,233.6,156.2,233.5z
	 M149.9,156.8h-39.6v44.8H153c15.1,0,25.8-6.6,25.8-22.9C178.8,161,165.1,156.8,149.9,156.8z M311.1,201.9
	c-18.3,0-30.5,11.4-31.7,29.7h62.2C339.9,213.1,330.3,201.9,311.1,201.9z M149.9,156.8h-39.6v44.8H153c15.1,0,25.8-6.6,25.8-22.9
	C178.8,161,165.1,156.8,149.9,156.8z M156.2,233.5h-46v52.9h45.1c17.2,0,31.2-6.1,31.2-25.4C186.5,241.3,174.8,233.6,156.2,233.5z"
	/>
<rect x="271.7" y="134.1" class="st1" width="77.8" height="18.9"/>
<path class="st1" d="M380,248.5c0-41.1-24.1-75.4-67.6-75.4c-42.4,0-71.1,31.8-71.1,73.6c0,43.3,27.3,73,71.1,73
	c33.2,0,54.7-14.9,65.1-46.8h-33.7c-3.7,11.9-18.6,18.1-30.2,18.1c-22.4,0-34.1-13.1-34.1-35.3h100.2
	C379.8,253.4,380,250.9,380,248.5z M279.4,231.6c1.2-18.3,13.4-29.7,31.7-29.7c19.2,0,28.8,11.2,30.5,29.7H279.4z"/>
<path class="st1" d="M193.7,211.7c17.2-8.2,26.2-17.7,26.2-37c0-38.2-28.5-47.5-61.4-47.5H68v192h93.1c34.9-0.2,67.6-16.9,67.6-55.9
	C228.7,239.2,217.3,218.4,193.7,211.7z M110.3,156.8h39.6c15.2,0,28.9,4.2,28.9,21.9c0,16.3-10.7,22.9-25.8,22.9h-42.7V156.8z
	 M155.3,286.4h-45.1v-52.9h46c18.6,0.1,30.3,7.8,30.3,27.5C186.5,280.3,172.5,286.4,155.3,286.4z"/>
</svg>
